<svg width="69" height="69" viewBox="0 0 69 69" fill="none" xmlns="http://www.w3.org/2000/svg">
<circle cx="34.5" cy="34.5" r="34.5" fill="#EEECF9"/>
<path d="M33.998 16.5247C24.3331 16.5247 16.498 24.3594 16.498 34.0247C16.498 43.69 24.3331 51.5247 33.998 51.5247C43.6629 51.5247 51.498 43.69 51.498 34.0247C51.498 24.3594 43.6629 16.5247 33.998 16.5247ZM33.998 25.2747C34.9646 25.2747 35.748 26.0587 35.748 27.0247C35.748 27.9907 34.9646 28.7747 33.998 28.7747C33.0315 28.7747 32.248 27.9907 32.248 27.0247C32.248 26.0587 33.0315 25.2747 33.998 25.2747ZM33.998 30.5247C34.9646 30.5247 35.748 31.3087 35.748 32.2747V41.0247C35.748 41.9907 34.9646 42.7747 33.998 42.7747C33.0315 42.7747 32.248 41.9907 32.248 41.0247V32.2747C32.248 31.3087 33.0315 30.5247 33.998 30.5247Z" fill="#6E62E7"/>
</svg>
