<svg width="24" height="24" viewBox="0 0 24 24" fill="none" xmlns="http://www.w3.org/2000/svg">
<path fill-rule="evenodd" clip-rule="evenodd" d="M15.4392 3.69V3.52C15.4392 2.68053 14.7587 2 13.9192 2H9.37922C8.53975 2 7.85922 2.68053 7.85922 3.52V3.66C5.66793 3.84277 3.98639 5.68114 3.99922 7.88V18.52C3.99922 19.6409 4.44519 20.7158 5.23876 21.5075C6.03233 22.2992 7.10827 22.7427 8.22922 22.74H15.0792C16.2002 22.7427 17.2761 22.2992 18.0697 21.5075C18.8632 20.7158 19.3092 19.6409 19.3092 18.52V7.88C19.3012 5.69099 17.6207 3.87154 15.4392 3.69ZM9.37813 3.52H13.9381V4.71H9.37813V3.52ZM11.7009 9.14H8.5809C8.16669 9.14 7.8309 9.47579 7.8309 9.89C7.8309 10.3042 8.16669 10.64 8.5809 10.64H11.7009C12.1151 10.64 12.4509 10.3042 12.4509 9.89C12.4509 9.47579 12.1151 9.14 11.7009 9.14ZM13.8909 16.69H8.5809C8.16669 16.69 7.8309 16.3542 7.8309 15.94C7.8309 15.5258 8.16669 15.19 8.5809 15.19H13.8909C14.3051 15.19 14.6409 15.5258 14.6409 15.94C14.6409 16.3542 14.3051 16.69 13.8909 16.69ZM8.5809 13.76H14.7209C15.1351 13.76 15.4709 13.4242 15.4709 13.01C15.4709 12.5958 15.1351 12.26 14.7209 12.26H8.5809C8.16669 12.26 7.8309 12.5958 7.8309 13.01C7.8309 13.4242 8.16669 13.76 8.5809 13.76Z" fill="black"/>
</svg>
