<svg width="18" height="18" viewBox="0 0 18 18" fill="none" xmlns="http://www.w3.org/2000/svg">
<path d="M11.6667 14.5799C12.194 14.2836 12.5556 13 13.2487 12.5556M7.66667 1.44446C8.55556 2.33335 10.3333 2.77779 11.2222 1.88889M1.88889 12.1111C2.62963 11.963 4.07942 11.6667 4.55556 13.0951C5.03169 14.5235 4.7037 14.9259 4.55556 15.2222M17 9C17 4.58172 13.4183 1 9 1C4.58172 1 1 4.58172 1 9C1 13.4183 4.58172 17 9 17C13.4183 17 17 13.4183 17 9ZM5.37156 5.61452L4.96442 6.5645C4.50176 7.64405 5.04462 8.89024 6.15023 9.28662C6.81644 9.52547 7.31111 10.0928 7.45706 10.7853L8.07413 13.7134C8.09856 13.8293 8.14487 13.9395 8.21059 14.0381C8.58309 14.5969 9.40644 14.59 9.76957 14.0251L12.4771 9.81334C12.815 9.28785 12.9576 8.66044 12.8801 8.04056L12.8194 7.55543C12.6651 6.32053 11.677 5.35659 10.4387 5.23276L8.59478 5.04837C8.282 5.01709 7.98948 4.87836 7.7672 4.65609C7.42929 4.31818 6.93855 4.18203 6.47494 4.29793L6.12728 4.38485C5.72597 4.48517 5.44445 4.84575 5.44445 5.25941C5.44445 5.38149 5.41965 5.50231 5.37156 5.61452Z" stroke="black" stroke-linecap="round" stroke-linejoin="round"/>
</svg>
