<svg width="24" height="24" viewBox="0 0 24 24" fill="none" xmlns="http://www.w3.org/2000/svg">
<path d="M2.32996 4.25C2.32996 3.00736 3.33732 2 4.57996 2H8.74996C9.9926 2 11 3.00736 11 4.25V6.42C11 7.66264 9.9926 8.67 8.74996 8.67H4.57996C3.33731 8.67 2.32996 7.66264 2.32996 6.42V4.25Z" fill="#B61F2D"/>
<path d="M13.67 4.25C13.67 3.00736 14.6773 2 15.92 2H19.42C20.6626 2 21.67 3.00736 21.67 4.25V11.08C21.67 12.3226 20.6626 13.33 19.42 13.33H15.92C14.6773 13.33 13.67 12.3226 13.67 11.08V4.25Z" fill="#B61F2D"/>
<path d="M13.67 18.25C13.67 17.0074 14.6773 16 15.92 16H19.42C20.6626 16 21.67 17.0074 21.67 18.25V19.75C21.67 20.9926 20.6626 22 19.42 22H15.92C14.6773 22 13.67 20.9926 13.67 19.75V18.25Z" fill="#B61F2D"/>
<path d="M2.32996 13.58C2.32996 12.3374 3.33732 11.33 4.57996 11.33H8.74996C9.9926 11.33 11 12.3374 11 13.58V19.75C11 20.9926 9.9926 22 8.74996 22H4.57996C3.33731 22 2.32996 20.9926 2.32996 19.75V13.58Z" fill="#B61F2D"/>
</svg>
