<svg width="29" height="29" viewBox="0 0 29 29" fill="none" xmlns="http://www.w3.org/2000/svg">
<path d="M14.4987 2.43372C7.82529 2.43372 2.41534 7.84344 2.41534 14.5171C2.41534 21.1907 7.82529 26.6004 14.4987 26.6004C21.1721 26.6004 26.582 21.1907 26.582 14.5171C26.582 7.84344 21.1721 2.43372 14.4987 2.43372ZM14.4987 4.85039C19.8375 4.85039 24.1653 9.17865 24.1653 14.5171C24.1653 19.8555 19.8375 24.1838 14.4987 24.1838C9.1599 24.1838 4.83201 19.8555 4.83201 14.5171C4.83201 9.17865 9.1599 4.85039 14.4987 4.85039ZM14.4987 8.4754C13.8313 8.4754 13.2903 9.01673 13.2903 9.68373C13.2903 10.3507 13.8313 10.8921 14.4987 10.8921C15.166 10.8921 15.707 10.3507 15.707 9.68373C15.707 9.01673 15.166 8.4754 14.4987 8.4754ZM14.4987 12.1004C13.8313 12.1004 13.2903 12.6417 13.2903 13.3087V19.3504C13.2903 20.0174 13.8313 20.5588 14.4987 20.5588C15.166 20.5588 15.707 20.0174 15.707 19.3504V13.3087C15.707 12.6417 15.166 12.1004 14.4987 12.1004Z" fill="#2A343D"/>
</svg>
